<svg xmlns="http://www.w3.org/2000/svg" xml:space="preserve" width="283.5" height="283.5">
  <style>
    .uwu__Logo_svg__st0{display:none}.uwu__Logo_svg__st7{display:inline}.uwu__Logo_svg__st8{fill-rule:evenodd;clip-rule:evenodd}.uwu__Logo_svg__st11,.uwu__Logo_svg__st12{stroke:#000;stroke-width:14.9147;stroke-linecap:round;stroke-linejoin:round}.uwu__Logo_svg__st12{fill:#fb1;stroke:#fb1;stroke-width:2.9829}
  </style>
  <g id="uwu__Logo_svg__xde">
    <path d="m41.1 58.9 1 6.6-4.4 4.3 5.9.9 3 4.7 2.7-4.7 5.9-.6-4.7-4.1 1.1-5.9-5.1 3.7zM224.7 210.2l-4.1 1.5-1.1 4-2.4-3.2-3.6-.1 1.8-3.1-1.6-3.6 3.9 1.4 3-2.5-.5 4.1zM174.7 242.1l.7 2.9-1.9 2.2 2.8.2 1.5 2 1.1-2.2 2.7-.5-2.3-1.7.3-2.8-2.2 1.9zM55 197.8l-2.8 1-2.4-1.6.1 2.8-1.8 1.7 2.3.8.9 2.6 1.4-2.4 2.7-.1-2.1-2zM205.8 58.2l-2.8 1-2.4-1.6.1 2.8-1.8 1.7 2.4.9.8 2.6 1.4-2.5h2.7l-2.1-2zM49.2 98.8 30.9 76.7 26 82.5zM38.1 97 14.3 84.7l-3.8 6.5zM33.3 179.3l-17.2 7.4 4.9 6.7zM40.4 176.6l-10.5 16.8 8.1 6zM270.4 94.1l2.3 8.8-29 3.2zM250.7 85.1l5.9 6.9-20.6 11.4zM233.3 195.5l5.3 15.8 7-3.9zM238.6 191.1l20.6 7.5-4 4.4z" class="uwu__Logo_svg__st8"/>
  </g>
  <g id="uwu__Logo_svg__dec">
    <path d="M64.4 67.5s15.9 8.1 24.6 1.9c8.7-6.3 12.1-28 12.1-28s6.7 16.1 20.9 15.4c14.3-.7 21.3-22.3 21.3-22.3s-1.6 14.5 15.4 19.4 30.2-7.1 30.2-7.1-8.7 17.8 2.4 26.9 34.9-.3 34.9-.3-15.8 14.9-8.4 28.2c7.3 13.3 25.6 14.1 25.6 14.1s-16.5 9-13.8 24.2 14.8 19.4 14.8 19.4-14.5 2.4-19.4 15.4c-5 13-1 24.1-1 24.1s-13.6-5.6-22.7 4.9-9.4 25.5-9.4 25.5-7.9-8.6-21.6-1.1c-13.6 7.5-17.9 15.5-17.9 15.5s-7-17.5-21.7-15.8-19 12.5-19 12.5-4.6-15.8-17-19.2c-12.4-3.5-22.3.5-22.3.5s3.2-15.9-5.7-24.3-18.9-8.9-18.9-8.9 6.9-5.6 4.3-20.4C49.5 152.9 42 147.6 42 147.6s8.2-5 9.9-15c1.8-10.1-8.6-17.9-8.6-17.9s16.2-13.1 18.8-22.2c2.5-9.1 2.3-25 2.3-25" class="uwu__Logo_svg__st8"/>
    <path d="M71.8 77.9s7.3 5.8 19.9-1.5 14.5-17 14.5-17 3.6 7.2 18.5 4.4 19.2-9.6 19.2-9.6 4.6 7 15.5 9.5c11 2.5 19.1-.3 19.1-.3s-2.1 6.8 10.1 17.3C200.9 91.3 208 88 208 88s-4.4 7 2.3 18.1 16.1 14.5 16.1 14.5-8.6 4.5-7.7 14.8 8.6 23.5 8.6 23.5-5.3 3.5-9.9 12.9-4 19-4 19-10.8 2.6-18.3 11.6-5.6 22-5.6 22-6.6-3.9-19.2.6-17.7 13.1-17.7 13.1-8.6-14.5-23-13.6-17.6 9.4-17.6 9.4.5-10.6-13.7-15.5-20.9-1.1-20.9-1.1 2.6-7.8-6-19.5c-8.7-11.7-17.2-13.4-17.2-13.4s4.8-9.3 3.6-18.2-8-17.3-8-17.3 6.4-7.3 8.4-18.5-5.2-13.8-5.2-13.8 9-6.8 13.5-18.1c4.6-11.6 5.3-20.6 5.3-20.6" fill-rule="evenodd" clip-rule="evenodd" fill="#fff"/>
    <path d="M81.1 87.5s8.5 3.9 17.5-2.3 11.8-17 11.8-17 3.9 10.5 15.9 8.8S142 64.3 142 64.3s2.8 10.3 13 12.4 20.3-2.9 20.3-2.9-6.6 10.4 3 16.6 24.1 2.9 24.1 2.9-8.2 10.6-2.7 20.2c5.5 9.7 14.9 10.2 14.9 10.2s-8.9 9.3-10.3 18.6C202.9 151.5 215 157 215 157s-8.5 1.7-11.2 12.9c-2.6 11.2.1 16.8.1 16.8s-9.4-1.2-17.2 6.5c-7.8 7.6-7.6 18.9-7.6 18.9s-9.7-5.3-16.6-.4-12.6 10.7-12.6 10.7-6.2-14.3-17.2-11.2-16.5 9-16.5 9-4.4-10.1-12.6-13.2-18-1.3-18-1.3 6.9-7.7-1.6-15.6-16.6-10.6-16.6-10.6 4-8.8 5.5-16.1c1.5-7.4-9.6-15.8-9.6-15.8s7.6-7.7 12.1-15.6-7.4-15.8-7.4-15.8 6.1-3.1 10.4-9.9c4.2-7 2.7-18.8 2.7-18.8" class="uwu__Logo_svg__st8"/>
    <path d="M103.8 92.8c8.5-5.1 9.3-15 9.3-15s3 9.8 13.7 8.1 16-12 16-12-1.4 7.8 11 10 16.3-3.1 16.3-3.1-5.2 3.2 2.5 12.3 20 7.2 20 7.2-6.2 7.4-2.7 15.5 13.9 10.4 13.9 10.4-7.7 4-7.2 14.4c.5 10.5 7 14.7 7 14.7s-8.6 2.6-10.4 12 1.8 14.5 1.8 14.5-7.7-.7-13.9 4.6c-6.1 5.3-6.4 16.1-6.4 16.1s-4.7-4-14.8.4-12.8 10.3-12.8 10.3-9.7-12.8-17.5-10.7-10.9 7.5-10.9 7.5-2.9-5.3-12.6-9.8c-9.8-4.4-13.1-1.9-13.1-1.9s1.7-9.8-3.7-17.2c-5.3-7.4-14.5-7.8-14.5-7.8s7.4-7.5 4.6-16.2c-2.9-8.7-7.7-11-7.7-11s8.6.8 11-9.3-5.5-19.3-5.5-19.3 1.2 1.5 6.2-6.8 2.6-18.1 3.5-18c1.1.1 9.2 4.7 16.9.1" fill-rule="evenodd" clip-rule="evenodd" fill="#4573b3"/>
  </g>
  <g id="uwu__Logo_svg__x2">
    <path d="M119.5 154.5c2.3 14 0 26.8 1.2 40.8-3.5 1.2-7 1.2-10.5 2.3-3.5-7-7-12.8-11.7-18.7 2.3 7 1.2 15.2 0 22.2-3.5 0-7 0-10.5 1.2-8.2-11.7-12.8-24.5-21-36.2 4.7 1.2 8.2-1.2 11.7-2.3 3.5 7 7 14 11.7 21l1.2-22.2c11.4-4.1 18.4 1.7 21 17.5-7.5-15.5-5.1-24.1 6.9-25.6M135.9 148.6c4.7 12.8 9.3 25.7 11.7 38.5-4.7 1.2-7 3.5-11.7 4.7-2.3-12.8-8.2-25.7-11.7-38.5 3.9-1.6 7.8-3.1 11.7-4.7M181.4 167.3c1.2 3.5 1.2 5.8 2.3 9.3-10.5 2.7-21 5.4-31.5 8.2-6-11.2-3.3-22.5 8.2-33.8-14.3 0-12 9.9-18.7-3.5 10.1-3.1 20.2-6.2 30.4-9.3 5.4 11.3 3 22.6-7 33.8 5.4-1.6 10.9-3.1 16.3-4.7" class="uwu__Logo_svg__st11"/>
    <path d="M212.3 165c.9 3.3.8 5.4 1.6 8.7-9.8 1.4-19.6 3-29.3 4.7-4.1-11.3-1-21.9 9.4-31.7-11.6 6-17.2 3.9-16.8-6.4 9.8-1.6 19.5-3.1 29.3-4.7-.8 12.7-3.6 18.7-10.4 30.6q8.1-2.1 16.2-1.2" class="uwu__Logo_svg__st11"/>
    <path d="M241.8 169.3c.7 2.9.4 4.8 1.1 7.7-9.8.5-19.3-1.8-29.2-.5-2.8-7 6.8-21.9 12.4-25.5-11.4 3.9-16.8 1.3-16.2-8 10-1.4 19.4.9 29.2.5 3.6 10.2-.9 18.3-13.3 24.4 5.3.5 10.6 1 16 1.4M263.1 130.8c-1 9.4-3.2 18.4-4.2 27.8-10.2-2.4-12.3-19.1-9.7-29.9 4.6.7 9.2 1.4 13.9 2.1m-3.6 37q2.85 15.75-10.8 9c-2.9-10 .7-12.9 10.8-9M55.3 116.3c-10.5-1.3-19.7 1.3-30.3 1.3-5.3 1.3-1.3 7.9 0 9.2 2.6 2.6 7.9 2.6 10.5 0 5.3 11.8 3.9 23.7 9.2 35.5 2.6 3.9 9.2 3.9 11.8 0 1.3-2.6-1.3-6.6-1.3-10.5 0-1.3-2.6-3.9-2.6-5.3-1.3-6.6-2.6-13.2-5.3-19.7 3.9 0 7.9 1.3 10.5-1.3s.1-6.5-2.5-9.2m53.9-14.4c-1.3 15.8 2.6 30.3 2.6 46-5.3-3.9-10.5-7.9-13.2-13.2-1.3-2.6 3.9-5.3 2.6-10.5-2.6-9.2-9.2-15.8-18.4-14.5-7.9 0-17.1-1.3-19.7 6.6-3.9 11.8 1.3 23.7 5.3 35.5 0 1.3 1.3 3.9 2.6 6.6 2.6 3.9 6.6-1.3 9.2 1.3 1.3 0 5.3-1.3 5.3-2.6 0-5.3-3.9-10.5-6.6-15.8 3.9 0 6.6-2.6 10.5-2.6h-1.3c1.3 3.9 2.6 7.9 5.3 10.5l3.9 3.9c5.3 2.6 9.2 1.3 14.5-3.9 1.3 0 5.3 0 6.6-1.3 2.6-3.9 1.3-7.9 2.6-13.2 0-5.3 9.2-6.6 14.5-3.9 2.6 1.3 3.9 5.3 6.6 7.9 2.6 1.3 5.3-1.3 7.9-2.6-6.6-14.5-17.1-27.6-28.9-36.8-2.6-2.6-7.9-2.6-10.5 0 0 1.2-1.4 1.2-1.4 2.6m-21 25c0 1.3-1.3 2.6-1.3 2.6-3.9 1.3-7.9 2.6-11.8 2.6 1.3-3.9-3.9-7.9-2.6-9.2 3.9-3.9 9.2-5.3 14.5-3.9 2.5 1.3 3.8 5.2 1.2 7.9m32.9-2.7c-2.6-3.9-2.6-9.2-2.6-13.2 0-2.6 1.3 1.3 2.6 0 2.6 3.9 5.3 6.6 7.9 10.5-2.6 0-5.3 2.6-7.9 3.9zm19.7-32.9V90c1.3 14.5 9.2 27.6 13.2 42.1 1.3 3.9 6.6 2.6 10.5 1.3-2.6-14.5-7.9-28.9-13.2-43.4-1.3-5.3-5.3-2.6-9.2-2.6-1.3 0-1.3 2.6-1.3 3.9m65.8 36.9c-1.3-2.6 2.6-3.9 1.3-6.6-2.6-13.2-2.6-26.3-9.2-38.1-2.6-2.6-9.2-5.3-9.2 0-2.6 9.2 3.9 15.8 3.9 25-7.9-9.2-14.5-17.1-23.7-25-2.6-1.3-5.3-2.6-7.9 0-3.9 6.6 0 13.2 1.3 19.7 2.6 9.2 5.3 17.1 7.9 26.3 1.3 3.9 6.6 3.9 9.2 1.3 0-1.3 1.3-1.3 1.3-2.6-2.6-9.2-5.3-18.4-7.9-27.6 1.3 1.3 1.3 3.9 2.6 5.3 3.9 3.9 7.9 6.6 10.5 10.5 5.4 6.5 10.7 17 19.9 11.8" class="uwu__Logo_svg__st11"/>
  </g>
  <g id="uwu__Logo_svg__text">
    <path d="M119.5 148.5c2.3 14 0 26.8 1.2 40.8-3.5 1.2-7 1.2-10.5 2.3-3.5-7-7-12.8-11.7-18.7 2.3 7 1.2 15.2 0 22.2-3.5 0-7 0-10.5 1.2-8.2-11.7-12.8-24.5-21-36.2 4.7 1.2 8.2-1.2 11.7-2.3 3.5 7 7 14 11.7 21l1.2-22.2c11.4-4.1 18.4 1.7 21 17.5-7.5-15.5-5.1-24 6.9-25.6M135.9 142.7c4.7 12.8 9.3 25.7 11.7 38.5-4.7 1.2-7 3.5-11.7 4.7-2.3-12.8-8.2-25.7-11.7-38.5 3.9-1.6 7.8-3.2 11.7-4.7M181.4 161.3c1.2 3.5 1.2 5.8 2.3 9.3-10.5 2.7-21 5.4-31.5 8.2-6-11.2-3.3-22.5 8.2-33.8-14.3 0-12 9.9-18.7-3.5 10.1-3.1 20.2-6.2 30.4-9.3 5.4 11.3 3 22.6-7 33.8 5.4-1.5 10.9-3.1 16.3-4.7" class="uwu__Logo_svg__st12"/>
    <path d="M212.6 159.5c.9 3.3.8 5.4 1.6 8.7-9.8 1.4-19.6 3-29.3 4.7-4.1-11.3-1-21.9 9.4-31.7-11.6 6-17.2 3.9-16.8-6.4 9.8-1.6 19.5-3.1 29.3-4.7-.7 12.7-3.6 18.7-10.4 30.5 5.4-1.3 10.8-1.7 16.2-1.1" class="uwu__Logo_svg__st12"/>
    <path d="M242.5 164.6c.7 2.9.4 4.8 1.1 7.7-9.8.5-19.3-1.8-29.2-.5-2.8-7 6.8-21.9 12.4-25.4-11.4 3.9-16.8 1.3-16.2-8 10-1.4 19.4.9 29.2.5 3.6 10.2-.9 18.3-13.3 24.4 5.2.4 10.6.9 16 1.3M264.5 125c-1 9.4-3.2 18.4-4.2 27.8-10.2-2.4-12.3-19.1-9.7-29.9 4.6.7 9.2 1.4 13.9 2.1m-4.1 36.9q2.85 15.75-10.8 9c-2.9-10 .7-12.9 10.8-9" class="uwu__Logo_svg__st12"/>
    <path d="M56.7 108.9c-10.5-1.5-19.7 1-30.3.9-5.3 1.2-1.4 7.9-.1 9.2 2.6 2.7 7.9 2.7 10.5.1 5.1 11.9 3.6 23.7 8.7 35.6 2.6 4 9.2 4.1 11.8.2 1.4-2.6-1.2-6.6-1.2-10.5 0-1.3-2.6-4-2.6-5.3-1.2-6.6-2.4-13.2-5-19.8 3.9.1 7.9 1.4 10.5-1.2s.3-6.5-2.3-9.2m54.1-13.7c-1.5 15.8 2.2 30.3 2 46.1-5.2-4-10.4-8-13-13.3-1.3-2.6 4-5.2 2.8-10.5-2.5-9.2-9-15.9-18.2-14.7-7.9-.1-17.1-1.6-19.8 6.3-4.1 11.8 1 23.7 4.8 35.6 0 1.3 1.3 4 2.5 6.6 2.6 4 6.6-1.2 9.2 1.4 1.3 0 5.3-1.2 5.3-2.6.1-5.3-3.8-10.6-6.4-15.9 3.9.1 6.6-2.5 10.6-2.5h-1.3c1.3 4 2.5 7.9 5.1 10.6 1.3 1.3 2.6 2.7 3.9 4 5.2 2.7 9.2 1.4 14.5-3.7 1.3 0 5.3.1 6.6-1.2 2.7-3.9 1.4-7.9 2.8-13.1.1-5.3 9.3-6.4 14.5-3.7 2.6 1.4 3.9 5.3 6.5 8 2.6 1.4 5.3-1.2 7.9-2.5-6.4-14.6-16.7-27.9-28.4-37.2-2.6-2.7-7.9-2.7-10.5-.1 0 1.1-1.3 1.1-1.4 2.4m-21.3 24.7c0 1.3-1.4 2.6-1.4 2.6-4 1.3-7.9 2.5-11.9 2.5 1.4-3.9-3.8-7.9-2.5-9.2 4-3.9 9.3-5.1 14.5-3.7 2.7 1.2 3.9 5.2 1.3 7.8m32.9-2.2c-2.6-4-2.5-9.2-2.4-13.2 0-2.6 1.3 1.3 2.6 0 2.6 4 5.2 6.6 7.7 10.6-2.6 0-5.3 2.6-7.9 3.8zm20.2-32.6v-1.3c1.1 14.5 8.8 27.7 12.6 42.3 1.3 4 6.5 2.7 10.5 1.5-2.4-14.5-7.5-29-12.5-43.6-1.2-5.3-5.2-2.7-9.2-2.8-1.4 0-1.4 2.6-1.4 3.9m65.2 37.8c-1.3-2.6 2.7-3.9 1.4-6.6-2.4-13.2-2.3-26.3-8.7-38.3-2.6-2.7-9.1-5.4-9.2-.1-2.8 9.2 3.7 15.8 3.6 25-7.8-9.3-14.2-17.3-23.3-25.3-2.6-1.4-5.2-2.7-7.9-.1-4 6.5-.2 13.2 1 19.7 2.5 9.2 5 17.2 7.5 26.4 1.3 4 6.5 4 9.2 1.4 0-1.3 1.3-1.3 1.4-2.6-2.5-9.2-5-18.5-7.5-27.7 1.3 1.3 1.3 4 2.6 5.3 3.9 4 7.8 6.7 10.4 10.7 5.1 6.7 10.2 17.3 19.5 12.2" fill="#fb1"/>
  </g>
</svg>
